<?xml version="1.0" standalone="no"?><!DOCTYPE svg PUBLIC "-//W3C//DTD SVG 1.1//EN" "http://www.w3.org/Graphics/SVG/1.1/DTD/svg11.dtd"><svg t="1618279384267" class="icon" viewBox="0 0 1170 1024" version="1.1" xmlns="http://www.w3.org/2000/svg" p-id="713" xmlns:xlink="http://www.w3.org/1999/xlink" width="548.4375" height="480"><defs><style type="text/css"></style></defs><path d="M2.681748 28.558426l560.729196 985.737546a21.234571 21.234571 0 0 0 27.914562 7.143202 19.844938 19.844938 0 0 0 7.582034-7.045684l569.018236-986.444553a18.406545 18.406545 0 0 0-0.51197-18.406545 22.746102 22.746102 0 0 0-16.066111-9.532396h-215.710083L585.230623 634.755445 224.242919 0.009996H20.430046A19.820558 19.820558 0 0 0 0 19.123547a18.13837 18.13837 0 0 0 2.681748 9.434879z" fill="#BFCBD9" p-id="714"></path><path d="M578.355596 515.393265l218.221175-429.567323-188.453769-79.111576a87.034923 87.034923 0 0 0-68.896552 0.804525l-177.263565 79.37975z" fill="#BFCBD9" p-id="715"></path></svg>