<?xml version="1.0" standalone="no"?><!DOCTYPE svg PUBLIC "-//W3C//DTD SVG 1.1//EN" "http://www.w3.org/Graphics/SVG/1.1/DTD/svg11.dtd"><svg t="1606817279730" class="icon" viewBox="0 0 1024 1024" version="1.1" xmlns="http://www.w3.org/2000/svg" p-id="3419" xmlns:xlink="http://www.w3.org/1999/xlink" width="200" height="200"><defs><style type="text/css"></style></defs><path d="M958.144106 816.585043c0 78.526471-63.212694 142.190443-141.178393 142.190443H207.033263c-77.964676 0-141.178393-63.663972-141.178393-142.190443V202.254424c0-78.526471 63.212694-142.190443 141.178393-142.190443h609.93245c77.964676 0 141.178393 63.663972 141.178393 142.190443v614.330619z" fill="#3CA8E0" p-id="3420"></path><path d="M808.619628 571.553351l-42.292222-31.789007c-0.61603-0.462534-0.626263-1.2689-1.086751-1.846045l-87.197968 116.009154-0.569981 0.75827c-0.547469 0.728594-0.664126 1.609661-1.129731 2.37407l-2.673899 22.488177-3.709485 31.19856 28.449959-12.116969 22.406313-9.541307c0.329505-0.38988 0.802272-0.576121 1.112334-0.988514l0.483-0.642636 86.972841-115.710348c-0.237407-0.143263-0.537236-0.022513-0.76441-0.193405zM777.023002 525.535271l42.292222 31.789007c0.227174 0.170892 0.195451 0.49221 0.400113 0.679475l5.460362-7.26445c9.18929-12.225439 6.704702-29.744441-5.519714-38.933731l-0.001023-0.001023c-12.225439-9.18929-29.744441-6.704702-38.933731 5.519713l-5.77247 7.679913c0.681522 0.281409 1.458211 0.068562 2.074241 0.531096z" fill="#FFFFFF" p-id="3421"></path><path d="M640.47507 666.448628c0.870834-1.429559 1.089821-3.076058 2.113127-4.439102l1.064239-1.41728 155.166988-206.436675V299.641451c0-43.774993-35.582403-79.193667-79.357395-78.920444-54.835909 0.341784-118.058836 0.838088-118.728079 0.100284H321.69984c-42.173518 0-76.679403 34.505885-76.679404 76.679404v464.345653c0 42.173518 34.505885 76.679403 76.679404 76.679404H722.141044c42.173518 0 76.679403-34.505885 76.679404-76.679404V627.170043l-72.234162 96.099708-0.902556 1.198292c-0.581238 0.772596-1.465374 1.118474-2.081404 1.849114L681.72045 744.151337l-53.176107 22.648836 6.933923-58.317196 4.996804-42.034349z m-64.676022 108.385522H330.652745c-15.21554 0-27.659967-12.447497-27.659966-27.659966 0-15.21554 12.444427-27.66099 27.659966-27.66099h245.146303c15.21247 0 27.66099 12.444427 27.66099 27.66099-0.001023 15.21247-12.44852 27.659967-27.66099 27.659966z m0-96.277763H330.652745c-15.21554 0-27.659967-12.447497-27.659966-27.659967s12.444427-27.659967 27.659966-27.659966h245.146303c15.21247 0 27.66099 12.447497 27.66099 27.659966s-12.44852 27.659967-27.66099 27.659967z m0-96.273671H330.652745c-15.21554 0-27.659967-12.447497-27.659966-27.66099 0-15.21554 12.444427-27.659967 27.659966-27.659966h245.146303c15.21247 0 27.66099 12.444427 27.66099 27.659966-0.001023 15.21247-12.44852 27.66099-27.66099 27.66099z m0-96.277763H330.652745c-15.21554 0-27.659967-12.447497-27.659966-27.659967 0-15.21247 12.444427-27.659967 27.659966-27.659966h245.146303c15.21247 0 27.66099 12.447497 27.66099 27.659966-0.001023 15.211447-12.44852 27.659967-27.66099 27.659967z m0-96.274694H330.652745c-15.21554 0-27.659967-12.447497-27.659966-27.659967 0-15.21554 12.444427-27.659967 27.659966-27.659966h245.146303c15.21247 0 27.66099 12.444427 27.66099 27.659966-0.001023 15.21247-12.44852 27.659967-27.66099 27.659967z" fill="#FFFFFF" p-id="3422"></path></svg>