<?xml version="1.0" standalone="no"?><!DOCTYPE svg PUBLIC "-//W3C//DTD SVG 1.1//EN" "http://www.w3.org/Graphics/SVG/1.1/DTD/svg11.dtd"><svg t="1611222030518" class="icon" viewBox="0 0 1024 1024" version="1.1" xmlns="http://www.w3.org/2000/svg" p-id="6019" id="mx_n_1611222030520" xmlns:xlink="http://www.w3.org/1999/xlink" width="200" height="200"><defs><style type="text/css"></style></defs><path d="M989.604 254.136v641.938c-0.743 4.688-1.383 9.41-2.286 14.075-12.645 66.78-69.274 113.817-137.29 113.828q-338.124 0.069-676.248 0a151.01 151.01 0 0 1-18.568-1.086c-68.302-8.506-120.688-67.136-120.734-136.055q-0.252-374.893 0-749.798c0-62.174 42.794-116.618 103.116-132.293C145.7 2.64 154.08 1.555 162.334 0h572.208c4.848 0.755 9.718 1.372 14.532 2.287 60.893 11.719 105.002 58.949 112.57 120.585 0.343 2.756 1.144 4.002 4.265 4.333a137.85 137.85 0 0 1 119.945 106.329c1.555 6.825 2.516 13.742 3.75 20.602zM787.912 126.302c-0.126-1.143-0.126-1.806-0.263-2.412-6.471-29.406-32.87-50.306-63.717-50.306H173.254c-36.735 0-65.41 28.651-65.421 65.432q-0.057 373.007 0 746.025c0 37.17 28.583 65.592 65.706 65.604h676.775c37.204 0 65.775-28.366 65.775-65.5q0.069-309.965 0-619.93a66.198 66.198 0 0 0-1.44-14.2c-6.86-30.87-32.722-51.278-64.895-51.278H294.297c-5.568 0-11.148 0.08-16.716 0a36.586 36.586 0 0 1-34.3-46.601c4.803-16.567 18.98-26.73 37.444-26.73h507.187z" p-id="6020" fill="#ffffff"></path><path d="M472.402 508.307c1.43-4.745 0-7.797-3.178-10.941Q404.901 433.34 340.83 369.12c-14.704-14.726-14.155-37.147 1.063-50.306a33.694 33.694 0 0 1 43.823-0.172c1.566 1.338 3.03 2.824 4.482 4.288q56.24 56.205 112.457 112.433c1.349 1.35 2.47 2.916 4.047 4.791 1.863-1.726 3.235-2.95 4.573-4.23Q571.231 377.706 631.21 319.5c15.938-15.435 39.147-13.983 51.815 3.018 10.221 13.72 8.678 32.402-3.979 44.738q-46.35 45.15-92.86 90.162c-13.937 13.526-27.794 27.142-41.834 40.554-2.904 2.778-4.664 5.533-3.212 10.29h141.256c13.72 0 24.342 6.23 30.595 18.464 6.152 12.028 5.191 24.147-2.72 35.18-6.86 9.57-16.544 14.028-28.343 14.028H540.864v59.27h5.545c46.488 0 92.963-0.115 139.485 0.057a33.568 33.568 0 0 1 30.263 47.813c-6.31 13.4-17.47 19.78-32.195 19.791q-68.53 0.069-137.061 0h-6.3v5.946c0 29.611 0.057 59.212 0 88.824a33.442 33.442 0 0 1-21.643 31.395 33.83 33.83 0 0 1-37.135-8.872c-6.174-6.791-8.883-14.863-8.883-24.01v-93.271H331.466c-18.293 0-32.596-12.417-34.608-29.727a33.476 33.476 0 0 1 33.476-37.878c45.367-0.103 90.733 0 136.055 0h6.093v-59.27h-5.533c-46.327 0-92.609 0.104-138.97 0-24.925-0.08-41.308-25.472-30.87-47.824 6.197-13.205 17.15-19.768 31.681-19.802q67.57-0.126 135.152 0z" p-id="6021" fill="#ffffff"></path></svg>