<?xml version="1.0" standalone="no"?><!DOCTYPE svg PUBLIC "-//W3C//DTD SVG 1.1//EN" "http://www.w3.org/Graphics/SVG/1.1/DTD/svg11.dtd"><svg t="1611221431380" class="icon" viewBox="0 0 1269 1024" version="1.1" xmlns="http://www.w3.org/2000/svg" p-id="997" xmlns:xlink="http://www.w3.org/1999/xlink" width="247.8515625" height="200"><defs><style type="text/css"></style></defs><path d="M1085.44 0a184.32 184.32 0 0 1 184.32 184.32v655.36a184.32 184.32 0 0 1-184.32 184.32H184.32a184.32 184.32 0 0 1-184.32-184.32V184.32a184.32 184.32 0 0 1 184.32-184.32h901.12z m122.88 232.89856L666.0096 648.41728l-3.29728 2.33472a51.2 51.2 0 0 1-58.9824-2.33472L61.44 232.91904V839.68a122.88 122.88 0 0 0 118.272 122.79808L184.32 962.56h901.12a122.88 122.88 0 0 0 122.79808-118.272L1208.32 839.68V232.89856zM1085.44 61.44H184.32a122.92096 122.92096 0 0 0-119.99232 96.256L634.88 594.90304 1205.43232 157.71648a122.94144 122.94144 0 0 0-115.38432-96.19456L1085.44 61.44z" p-id="998"></path></svg>