<?xml version="1.0" standalone="no"?><!DOCTYPE svg PUBLIC "-//W3C//DTD SVG 1.1//EN" "http://www.w3.org/Graphics/SVG/1.1/DTD/svg11.dtd"><svg t="1613724659405" class="icon" viewBox="0 0 1024 1024" version="1.1" xmlns="http://www.w3.org/2000/svg" p-id="2655" xmlns:xlink="http://www.w3.org/1999/xlink" width="480" height="480"><defs><style type="text/css"></style></defs><path d="M876.544 199.9872H156.5696c-13.4144 0-23.9616 10.9568-23.9616 24.3712s10.9568 24.3712 23.9616 24.3712h23.9616v437.248c0 26.9312 21.504 48.4352 48.0256 48.4352h137.1136l-52.4288 65.536c-9.4208 11.6736-7.68 29.0816 4.4032 38.6048 4.7104 3.9936 10.9568 5.8368 16.6912 5.8368 7.9872 0 15.9744-3.6864 21.504-10.1376l80.0768-99.6352h161.1776l80.0768 99.6352c5.4272 6.5536 13.4144 10.1376 21.504 10.1376 5.8368 0 11.9808-1.8432 16.6912-5.8368 11.9808-9.4208 13.824-26.9312 4.4032-38.6048l-52.4288-65.536h136.8064c26.5216 0 48.4352-21.504 48.4352-48.4352v-437.248H876.544c13.1072 0 23.9616-10.9568 23.9616-24.3712s-10.8544-24.3712-23.9616-24.3712zM738.304 366.2848L584.3968 520.0896c-9.4208 9.4208-24.7808 10.5472-35.6352 2.56l-101.888-76.3904-106.5984 133.12c-5.4272 6.5536-13.4144 10.1376-21.504 10.1376-5.8368 0-11.9808-1.8432-17.1008-5.8368-11.6736-9.4208-13.4144-26.9312-4.4032-38.6048L420.5568 391.168c9.1136-11.6736 25.8048-13.4144 37.4784-4.7104l104.448 78.2336 137.216-137.0112c10.5472-10.9568 28.0576-10.9568 38.6048 0 10.5472 10.5472 10.5472 27.648 0 38.6048z" p-id="2656"></path></svg>