<?xml version="1.0" standalone="no"?><!DOCTYPE svg PUBLIC "-//W3C//DTD SVG 1.1//EN" "http://www.w3.org/Graphics/SVG/1.1/DTD/svg11.dtd"><svg t="1606817530455" class="icon" viewBox="0 0 1024 1024" version="1.1" xmlns="http://www.w3.org/2000/svg" p-id="6902" xmlns:xlink="http://www.w3.org/1999/xlink" width="200" height="200"><defs><style type="text/css"></style></defs><path d="M884.9 957.7H233.1c-23.2 0-42.1-18.9-42.1-42.1v-85.9h64v64h608V224.1l-57.3-0.3 0.4-64 79 0.4c23.1 0.1 42 18.9 42 42.1v713.3c-0.1 23.2-19 42.1-42.2 42.1z" p-id="6903"></path><path d="M773.8 64.2H131.6c-17.6 0-32 14.4-32 32v701.5c0 17.6 14.4 32 32 32h642.2c17.6 0 32-14.4 32-32V96.2c0-17.6-14.4-32-32-32z m-51.1 624.2c0 17.6-14.4 32-32 32h-476c-17.6 0-32-14.4-32-32s14.4-32 32-32h476c17.6 0 32 14.4 32 32z m0-154.8c0 17.6-14.4 32-32 32h-476c-17.6 0-32-14.4-32-32s14.4-32 32-32h476c17.6 0 32 14.4 32 32z m0-154.9c0 17.6-14.4 32-32 32h-476c-17.6 0-32-14.4-32-32s14.4-32 32-32h476c17.6 0 32 14.4 32 32z m0-147.2c0 13.4-10.9 24.3-24.3 24.3H434.9c-13.4 0-24.3-10.9-24.3-24.3v-15.3c0-13.4 10.9-24.3 24.3-24.3h263.5c13.4 0 24.3 10.9 24.3 24.3v15.3z" p-id="6904"></path></svg>