<?xml version="1.0" standalone="no"?><!DOCTYPE svg PUBLIC "-//W3C//DTD SVG 1.1//EN" "http://www.w3.org/Graphics/SVG/1.1/DTD/svg11.dtd"><svg t="1606817072110" class="icon" viewBox="0 0 1024 1024" version="1.1" xmlns="http://www.w3.org/2000/svg" p-id="1999" xmlns:xlink="http://www.w3.org/1999/xlink" width="200" height="200"><defs><style type="text/css"></style></defs><path d="M0.00032 926.528061v-243.839848a97.727939 97.727939 0 0 1 97.919939-97.471939 96.70394 96.70394 0 0 1 83.839947 50.047969h20.479988c4.607997-1.471999 9.471994-3.647998 14.65599-5.631997a314.367804 314.367804 0 0 1 118.015927-26.239983h21.183986a284.095822 284.095822 0 0 1 93.119942 20.927987c10.239994 3.647998 29.247982 10.239994 33.727979 11.007993h108.159933a137.407914 137.407914 0 0 1 102.399936 39.807975l119.167925-69.823956a145.343909 145.343909 0 0 1 55.871965-20.607987 149.503907 149.503907 0 0 1 23.359986-1.791999 135.551915 135.551915 0 0 1 99.903937 42.943973l6.783996 7.551995 5.311997 8.831995a136.703915 136.703915 0 0 1-29.887982 175.67989l-6.399996 5.503996-7.359995 4.479998-215.871865 131.263918-4.223998 2.559998-4.479997 2.239999a148.415907 148.415907 0 0 1-20.223987 8.063994 143.35991 143.35991 0 0 1-53.887966 10.495994H176.32021a95.99994 95.99994 0 0 1-78.399951 41.919974A97.727939 97.727939 0 0 1 0.00032 926.528061z m203.007873-54.207966h458.623713a33.151979 33.151979 0 0 0 13.759992-2.943998l4.223997-1.727999a38.399976 38.399976 0 0 0 7.487996-2.559999l215.807865-131.263918a28.351982 28.351982 0 0 0 6.847995-35.391978 24.127985 24.127985 0 0 0-17.663989-6.399996 47.29597 47.29597 0 0 0-5.887996 0.448 37.887976 37.887976 0 0 0-15.93599 5.887997l-214.783866 125.887921a279.871825 279.871825 0 0 1-87.295945 16.19199h-13.439992c-17.791989 0-17.663989-31.99998 0-31.99998h13.503992c27.199983 0 51.647968-14.463991 51.647968-32.31998 0-28.479982-7.423995-31.99998-28.863982-31.99998h-108.159933a232.831854 232.831854 0 0 1-70.399956-17.151989 211.199868 211.199868 0 0 0-56.639964-14.655991h-21.183987a212.031867 212.031867 0 0 0-77.823952 18.687988 142.079911 142.079911 0 0 1-49.087969 13.183992h-5.119997z m255.99984-304.83181v-50.495968H275.264148V407.232385h183.743885v-59.839962H275.264148V237.632491h87.999945l-43.967973-43.775972 77.887952-77.631952 116.927927 116.415928 116.863927-116.415928 77.951951 77.631952-44.031973 43.775972h88.383945v109.759932H569.599964v59.839962h183.679885v109.759932H569.599964v50.495968z m385.855759-39.551975V153.600544a43.775973 43.775973 0 0 0-43.839973-43.583973H227.264178a43.711973 43.711973 0 0 0-43.775973 43.583973v374.591766H73.216274V153.600544A153.599904 153.599904 0 0 1 227.264178 0.00064h574.015641a153.599904 153.599904 0 0 1 154.047904 153.599904v374.591766h-110.207931z" p-id="2000"></path></svg>