<?xml version="1.0" standalone="no"?><!DOCTYPE svg PUBLIC "-//W3C//DTD SVG 1.1//EN" "http://www.w3.org/Graphics/SVG/1.1/DTD/svg11.dtd"><svg t="1613724425938" class="icon" viewBox="0 0 1024 1024" version="1.1" xmlns="http://www.w3.org/2000/svg" p-id="3740" xmlns:xlink="http://www.w3.org/1999/xlink" width="480" height="480"><defs><style type="text/css"></style></defs><path d="M512 603.84m-27.04 0a27.04 27.04 0 1 0 54.08 0 27.04 27.04 0 1 0-54.08 0Z" p-id="3741"></path><path d="M932.96 69.6h-187.2V176a54.08 54.08 0 1 1-81.12 46.72A54.72 54.72 0 0 1 691.68 176V69.6h-152.8V176a53.44 53.44 0 1 1-54.08 0V69.6h-152.8V176a53.92 53.92 0 1 1-73.6 19.84A56.16 56.16 0 0 1 278.24 176V69.6H90.72A26.88 26.88 0 0 0 64 96v832a26.72 26.72 0 0 0 26.56 26.88h842.4A26.88 26.88 0 0 0 960 928V96a27.04 27.04 0 0 0-27.04-26.4zM749.12 678.56l-54.08 93.28a26.72 26.72 0 0 1-36.32 10.08l-38.88-22.4a215.68 215.68 0 0 1-26.4 15.04v45.44a26.88 26.88 0 0 1-27.04 26.72h-108.32a26.56 26.56 0 0 1-27.04-26.56v-45.92a178.56 178.56 0 0 1-26.4-15.04l-39.36 22.4a26.72 26.72 0 0 1-36.64-9.44l-54.08-93.28a27.2 27.2 0 0 1 10.24-36.8l38.88-22.72v-16-15.04l-38.88-22.72a25.92 25.92 0 0 1-12.64-16 28.16 28.16 0 0 1 2.4-20.64l54.08-93.28a26.88 26.88 0 0 1 16-12.48 25.6 25.6 0 0 1 20.16 2.72L404.64 448a178.56 178.56 0 0 1 26.4-15.04v-45.12a27.04 27.04 0 0 1 27.04-27.04h107.68a27.04 27.04 0 0 1 27.04 27.04v45.44a215.68 215.68 0 0 1 26.4 14.72l38.88-22.4a26.72 26.72 0 0 1 36.64 9.44l53.92 93.28a26.56 26.56 0 0 1-9.44 36.64l-39.36 22.72a120.8 120.8 0 0 1 0 30.4l39.36 22.72a26.72 26.72 0 0 1 10.24 36.32z" p-id="3742"></path><path d="M644.48 628.48a128 128 0 0 0 0-49.44 26.72 26.72 0 0 1 13.12-28.16l32-18.24-27.04-46.56-32 18.08a26.72 26.72 0 0 1-30.88-2.72 137.28 137.28 0 0 0-42.72-24.64 27.36 27.36 0 0 1-18.08-25.44v-36.48H484.8v36.48a26.88 26.88 0 0 1-17.76 25.44 137.28 137.28 0 0 0-42.72 24.64 26.72 26.72 0 0 1-30.88 2.72l-32-18.08-26.72 46.56 32 18.24a27.36 27.36 0 0 1 13.12 28.16 128 128 0 0 0 0 49.44 27.68 27.68 0 0 1-13.12 28.32l-32 18.08 26.72 46.56 32-18.08a26.72 26.72 0 0 1 30.88 2.72 131.2 131.2 0 0 0 42.72 24.64 26.88 26.88 0 0 1 17.76 25.44v36.48h54.08v-36.48a27.52 27.52 0 0 1 18.08-25.44 131.2 131.2 0 0 0 42.72-24.64 26.72 26.72 0 0 1 30.88-2.08l32 18.08 27.04-46.56-32-18.08a27.04 27.04 0 0 1-13.12-28.96zM512 684.64a80.96 80.96 0 1 1 81.12-80.96A80.96 80.96 0 0 1 512 684.64z" p-id="3743"></path></svg>