<?xml version="1.0" standalone="no"?><!DOCTYPE svg PUBLIC "-//W3C//DTD SVG 1.1//EN" "http://www.w3.org/Graphics/SVG/1.1/DTD/svg11.dtd"><svg t="1612403519778" class="icon" viewBox="0 0 1088 1024" version="1.1" xmlns="http://www.w3.org/2000/svg" p-id="11201" xmlns:xlink="http://www.w3.org/1999/xlink" width="212.5" height="200"><defs><style type="text/css"></style></defs><path d="M1084.710172 1019.718325h-132.460079c0-2.514635 0-4.893343-0.407778 0a272.532024 272.532024 0 0 0-271.852393-271.852393c-150.130484 0-203.889294 122.809318-203.889294 271.852393-0.543705-4.893343-0.543705-2.514635-0.407779 0H340.174431a462.149067 462.149067 0 0 1 119.139311-314.533218 159.373465 159.373465 0 0 0-156.85883-90.322958C163.878155 609.017323 136.285137 688.058406 136.285137 815.82903c-0.407779-4.213712-0.407779-2.106856 0 0H0.35894v-0.407778-1.291299a319.426561 319.426561 0 0 1 302.028009-334.106591 295.503551 295.503551 0 0 1 252.890688 152.577156 314.397292 314.397292 0 0 1 139.800093-32.690251A391.263556 391.263556 0 0 1 1087.768511 989.746599c0 10.262428-2.242782 19.913188-3.058339 29.971726zM951.842315 1019.718325h0.407778c-0.407779 2.582598-0.407779 5.233159-0.407778 0z m-476.149466 0H476.100628c0 5.233159 0 2.582598-0.407779 0zM340.174431 1019.718325c0 10.262428-0.815557-65.312537 0 0z m-203.889294-203.889295c0 4.485564 0 2.174819 0 0z m-135.926197-0.407778c0 3.126303-0.475742-5.776863 0 0zM689.776608 543.976638a262.473485 262.473485 0 0 1-247.113825-184.247959 171.33497 171.33497 0 0 1-131.780447 63.341607 181.461472 181.461472 0 0 1 0-362.651092 172.898122 172.898122 0 0 1 147.819738 85.361652 260.366629 260.366629 0 0 1 231.074534-145.780846 271.988319 271.988319 0 0 1 0 543.976638zM340.174431 204.161147H272.211333v67.963098h67.963098V204.161147z m339.815491-67.963098a135.926196 135.926196 0 1 0 135.926196 135.926196 135.926196 135.926196 0 0 0-135.926196-135.926196z" p-id="11202"></path></svg>