<?xml version="1.0" standalone="no"?><!DOCTYPE svg PUBLIC "-//W3C//DTD SVG 1.1//EN" "http://www.w3.org/Graphics/SVG/1.1/DTD/svg11.dtd"><svg t="1613724539024" class="icon" viewBox="0 0 1024 1024" version="1.1" xmlns="http://www.w3.org/2000/svg" p-id="1889" xmlns:xlink="http://www.w3.org/1999/xlink" width="480" height="480"><defs><style type="text/css"></style></defs><path d="M80.384 918.016c0 16.384 11.776 29.696 27.136 29.696h112.128c14.848 0 27.136-13.312 27.136-29.696v-304.128l-166.912 108.544 0.512 195.584zM314.368 569.856v348.16c0 16.384 12.288 29.696 27.136 29.696h112.64c14.848 0 27.136-13.312 27.136-29.696v-361.472l-75.776-46.08c0 0.512-91.136 59.392-91.136 59.392zM550.912 599.04l-2.048-1.536v320.512c0 16.384 12.288 29.696 27.136 29.696h112.128c14.848 0 27.136-13.312 27.136-29.696V448.512c0-1.536 0-3.072-0.512-4.608l-163.84 155.136zM783.872 380.416v538.112c0 16.384 12.288 29.696 27.136 29.696h112.64c14.848 0 27.136-13.312 27.136-29.696V371.2l-67.072-84.992-99.84 94.208z" p-id="1890"></path><path d="M930.816 101.376l-107.008 7.68s-40.96-1.536-32.256 14.848l55.296 55.808-295.936 246.784-102.4-77.312c-8.192-6.144-19.968-6.656-28.672-0.512L88.064 573.44c-11.264 7.68-14.336 23.04-6.656 34.304 4.608 7.168 12.8 11.264 20.48 11.264 4.608 0 9.728-1.536 13.824-4.096l317.44-215.04 103.424 78.848c9.216 7.168 22.016 6.656 30.72-1.024l314.368-261.632 44.032 49.152c18.944 17.92 24.576-11.264 24.576-11.264V123.392c0-0.512 0.512-15.36-19.456-22.016zM155.648 128.512V143.36h-9.216l49.152 73.728h6.656L252.416 143.36h-10.752v-14.848h66.56V143.36h-5.632c-2.048 0-4.096 1.024-5.632 3.072l-47.616 71.168H291.84v35.328H217.088v22.528h75.264v35.84H217.088v20.992c0 4.096 3.584 7.68 7.68 7.68H240.64v29.696H150.016v-29.696h17.92c4.096 0 7.68-3.584 7.68-7.68v-20.992H100.352v-35.84h74.752v-22.528H100.352v-35.328h47.104L97.28 146.432c-1.024-1.536-3.072-2.56-5.632-2.56h-7.68v-14.848h71.68z" p-id="1891"></path></svg>